<svg xmlns="http://www.w3.org/2000/svg" viewBox="0 0 60 60" id="simulation"><linearGradient id="a" x1="6.25" x2="48.751" y1="19.009" y2="19.009" gradientUnits="userSpaceOnUse"><stop offset="0" stop-color="#000092"></stop><stop offset="1" stop-color="#FF00F3"></stop></linearGradient><path fill="url(#a)" d="M47.794 22.896a.5.5 0 0 0 .5-.5v-6.115a34.27 34.27 0 0 1 2 .643v4.411a.5.5 0 0 0 1 0v-4.762a.5.5 0 0 0-.326-.469 36.237 36.237 0 0 0-3.043-.965.499.499 0 0 0-.631.482v6.774a.5.5 0 0 0 .5.501z"></path><linearGradient id="b" x1="6.25" x2="48.751" y1="24.043" y2="24.043" gradientUnits="userSpaceOnUse"><stop offset="0" stop-color="#000092"></stop><stop offset="1" stop-color="#FF00F3"></stop></linearGradient><path fill="url(#b)" d="M44.294 19.528v3.641a.5.5 0 0 0 1 0v-4.042a.5.5 0 0 0-.391-.488 55.594 55.594 0 0 0-3.027-.589.505.505 0 0 0-.405.111.503.503 0 0 0-.177.382v11a.5.5 0 0 0 1 0V19.136c.679.12 1.349.252 2 .392z"></path><linearGradient id="c" x1="6.25" x2="48.751" y1="15.565" y2="15.565" gradientUnits="userSpaceOnUse"><stop offset="0" stop-color="#000092"></stop><stop offset="1" stop-color="#FF00F3"></stop></linearGradient><path fill="url(#c)" d="M36.837 15.114l-.403-.04a18.526 18.526 0 0 0-.604-.056.515.515 0 0 0-.534.464.5.5 0 0 0 .464.534c.194.014.383.033.571.053l.421.041.044.002a.5.5 0 0 0 .041-.998z"></path><linearGradient id="d" x1="6.25" x2="48.751" y1="13.564" y2="13.564" gradientUnits="userSpaceOnUse"><stop offset="0" stop-color="#000092"></stop><stop offset="1" stop-color="#FF00F3"></stop></linearGradient><path fill="url(#d)" d="M36.837 13.114l-.403-.04a18.526 18.526 0 0 0-.604-.056.5.5 0 1 0-.07.998c.194.014.383.033.571.053l.421.041.044.002a.5.5 0 0 0 .041-.998z"></path><linearGradient id="e" x1="6.25" x2="48.751" y1="11.565" y2="11.565" gradientUnits="userSpaceOnUse"><stop offset="0" stop-color="#000092"></stop><stop offset="1" stop-color="#FF00F3"></stop></linearGradient><path fill="url(#e)" d="M36.837 11.114l-.403-.04a18.526 18.526 0 0 0-.604-.056.513.513 0 0 0-.534.464.5.5 0 0 0 .464.534c.194.014.383.033.571.053l.421.041.044.002a.5.5 0 0 0 .041-.998z"></path><linearGradient id="f" x1="6.25" x2="48.751" y1="12.011" y2="12.011" gradientUnits="userSpaceOnUse"><stop offset="0" stop-color="#000092"></stop><stop offset="1" stop-color="#FF00F3"></stop></linearGradient><path fill="url(#f)" d="M38.736 12.299c1.049.122 2.05.262 2.976.415a.5.5 0 0 0 .164-.986 65.053 65.053 0 0 0-3.024-.423.51.51 0 0 0-.555.439.502.502 0 0 0 .439.555z"></path><linearGradient id="g" x1="6.25" x2="48.751" y1="14.012" y2="14.012" gradientUnits="userSpaceOnUse"><stop offset="0" stop-color="#000092"></stop><stop offset="1" stop-color="#FF00F3"></stop></linearGradient><path fill="url(#g)" d="M38.736 14.299c1.049.122 2.05.262 2.976.415a.5.5 0 0 0 .164-.986 65.053 65.053 0 0 0-3.024-.423.511.511 0 0 0-.555.439.502.502 0 0 0 .439.555z"></path><linearGradient id="h" x1="6.25" x2="48.751" y1="16.011" y2="16.011" gradientUnits="userSpaceOnUse"><stop offset="0" stop-color="#000092"></stop><stop offset="1" stop-color="#FF00F3"></stop></linearGradient><path fill="url(#h)" d="M41.795 16.721a.5.5 0 0 0 .081-.993 65.053 65.053 0 0 0-3.024-.423.506.506 0 0 0-.555.439.503.503 0 0 0 .439.555c1.049.122 2.05.262 2.976.415a.473.473 0 0 0 .083.007z"></path><linearGradient id="i" x1="6.25" x2="48.751" y1="43.733" y2="43.733" gradientUnits="userSpaceOnUse"><stop offset="0" stop-color="#000092"></stop><stop offset="1" stop-color="#FF00F3"></stop></linearGradient><circle cx="13.784" cy="43.733" r=".5" fill="url(#i)"></circle><linearGradient id="j" x1="6.25" x2="48.751" y1="43.198" y2="43.198" gradientUnits="userSpaceOnUse"><stop offset="0" stop-color="#000092"></stop><stop offset="1" stop-color="#FF00F3"></stop></linearGradient><circle cx="11.793" cy="43.198" r=".5" fill="url(#j)"></circle><linearGradient id="k" x1="6.25" x2="48.751" y1="42.513" y2="42.513" gradientUnits="userSpaceOnUse"><stop offset="0" stop-color="#000092"></stop><stop offset="1" stop-color="#FF00F3"></stop></linearGradient><circle cx="9.805" cy="42.513" r=".5" fill="url(#k)"></circle><linearGradient id="l" x1="6.25" x2="48.751" y1="42.513" y2="42.513" gradientUnits="userSpaceOnUse"><stop offset="0" stop-color="#000092"></stop><stop offset="1" stop-color="#FF00F3"></stop></linearGradient><circle cx="50.784" cy="42.513" r=".5" fill="url(#l)"></circle><linearGradient id="m" x1="6.25" x2="48.751" y1="43.048" y2="43.048" gradientUnits="userSpaceOnUse"><stop offset="0" stop-color="#000092"></stop><stop offset="1" stop-color="#FF00F3"></stop></linearGradient><circle cx="48.793" cy="43.048" r=".5" fill="url(#m)"></circle><linearGradient id="n" x1="6.25" x2="48.751" y1="43.733" y2="43.733" gradientUnits="userSpaceOnUse"><stop offset="0" stop-color="#000092"></stop><stop offset="1" stop-color="#FF00F3"></stop></linearGradient><circle cx="46.805" cy="43.733" r=".5" fill="url(#n)"></circle><linearGradient id="o" x1="6.25" x2="48.751" y1="32.961" y2="32.961" gradientUnits="userSpaceOnUse"><stop offset="0" stop-color="#000092"></stop><stop offset="1" stop-color="#FF00F3"></stop></linearGradient><path fill="url(#o)" d="M30.294 8.141c-15.141 0-27 4.173-27 9.5v22c0 3.48 5.034 6.563 13.467 8.248a.5.5 0 0 0 .598-.49V32.313a56.967 56.967 0 0 1 1.954-.342l-.142.211a2.124 2.124 0 0 0 .252 2.663l4.535 4.604c.279.284.627.473 1.005.564v16.192c0 .87.707 1.577 1.577 1.577h1.468a1.57 1.57 0 0 0 1.571-1.43l.733-7.82.732 7.82c.076.814.752 1.43 1.571 1.43h1.468a1.58 1.58 0 0 0 1.578-1.577V40.014c.379-.091.728-.28 1.008-.565l4.535-4.604a2.122 2.122 0 0 0 .25-2.663l-.14-.209c.065.01.132.019.197.03a53.4 53.4 0 0 1 1.719.313v15.083a.501.501 0 0 0 .598.491c8.432-1.685 13.466-4.768 13.466-8.248v-22c0-5.329-11.859-9.501-27-9.501zM16.358 46.785C9.007 45.222 4.294 42.443 4.294 39.64V20.267c.028.036.07.07.099.107.177.216.375.428.594.637.058.055.112.111.172.166.271.245.568.486.895.721.06.043.126.084.187.127.288.199.597.394.925.585.093.054.183.108.279.161.396.221.814.436 1.262.644.065.03.136.059.202.089.4.181.822.356 1.261.527.127.049.253.099.384.147.238.088.482.175.73.26l.008.005c.004.002.009.001.013.002.281.096.561.193.856.286.051.016.106.03.157.046.522.161 1.068.314 1.629.461l.476.123c.625.157 1.265.308 1.935.447v20.977zm18.304-7.246h-8.696v-1.155h8.696v1.155zm-9.699-5.101l-1.313-1.334 1.313-1.961v3.295zm9.699 21.767c0 .318-.26.577-.578.577h-1.468a.574.574 0 0 1-.575-.523l-1.23-13.131a.5.5 0 0 0-.996 0l-1.231 13.131a.573.573 0 0 1-.575.523H26.54a.578.578 0 0 1-.577-.577V40.824c0-.005.003-.009.003-.015v-.271h8.696V56.205zm5.83-22.06l-4.535 4.604a1.106 1.106 0 0 1-.295.2v-3.082l2.315-2.351a.5.5 0 0 0 .059-.629l-2.459-3.671a.5.5 0 0 0-.915.279v7.89h-8.696v-1.721-6.169a.502.502 0 0 0-.354-.479.504.504 0 0 0-.561.2l-2.459 3.671a.5.5 0 0 0 .059.629l2.313 2.348v3.083a1.124 1.124 0 0 1-.292-.198l-4.535-4.604a1.12 1.12 0 0 1-.134-1.405l3.794-5.663c.225-.335.526-.621.873-.827l3.459-2.059c.02.002.037.012.058.012h4.254c.021 0 .039-.01.06-.012l3.459 2.059c.346.206.648.492.873.827l1.501 2.241a.49.49 0 0 0 .108.161l2.184 3.261a1.12 1.12 0 0 1-.134 1.405zm-4.83.296v-3.303l1.316 1.966-1.316 1.337zM27.04 17.95l.039-1.194h6.332a.473.473 0 0 0 .173.039l-.038 1.156-6.506-.001zm.625-2.194a1.65 1.65 0 0 1 1.57-1.155h2.155c.738 0 1.356.488 1.57 1.155h-5.295zm-.086 3.194l5.466.001v.23c0 .981-.698 1.837-1.571 2.022l-.903.02-1.331-.01a2.08 2.08 0 0 1-1.66-2.032v-.231zm1.544 3.253l.589.02 1.872-.029c.123-.025.239-.067.355-.106v1.115h-3.254v-1.125c.142.048.286.095.438.125zm11.439 8.646l-1.268-1.893v-5.832a.5.5 0 0 0-.443-.497 89.546 89.546 0 0 0-.982-.107.5.5 0 0 0-.104.994l.529.058v3.892l-.632-.943a3.762 3.762 0 0 0-1.192-1.13l-3.53-2.102v-1.755a3.074 3.074 0 0 0 1.105-2.352v-.318c.206-.114.362-.3.453-.52l.001-.003c.05-.121.085-.25.085-.389v-1.156a1.02 1.02 0 0 0-.113-.451 1.012 1.012 0 0 0-.163-.241c-.016-.017-.027-.037-.044-.053a1.048 1.048 0 0 0-.247-.181 2.66 2.66 0 0 0-2.627-2.269h-2.155a2.66 2.66 0 0 0-2.627 2.269c-.092.047-.174.11-.247.181-.017.016-.029.036-.044.053a1.075 1.075 0 0 0-.203.33 1.016 1.016 0 0 0-.073.362v1.155c0 .128.03.247.073.36l.024.056c.093.208.243.385.442.495v.319c0 .922.418 1.767 1.106 2.339v1.77l-3.528 2.1a3.738 3.738 0 0 0-1.191 1.13l-2.897 4.324c-.922.132-1.827.285-2.71.453v-1.981c.499-.097 1-.192 1.518-.279a.5.5 0 0 0-.164-.986c-.462.077-.907.164-1.354.249v-2.9a.5.5 0 0 0-.402-.49 42.072 42.072 0 0 1-4.843-1.257l.347-.952a44.867 44.867 0 0 0 2.853.758.5.5 0 0 0 .574-.301l2.136-4.275.295.766a.501.501 0 0 0 .934-.359l-.693-1.799-.006-.017-.019-.051a.502.502 0 0 0-.646-.287l-1.866.719a.5.5 0 0 0 .359.933l.709-.273-1.937 3.878a44.057 44.057 0 0 1-1.231-.313c-.56-.151-1.099-.31-1.616-.475a.501.501 0 0 0-.621.305l-.517 1.415a23.443 23.443 0 0 1-2.874-1.25v-4.433a.5.5 0 0 0-1 0v3.861c-1.917-1.196-3-2.525-3-3.861 0-4.607 11.906-8.5 26-8.5s26 3.893 26 8.5c0 2.878-4.97 5.73-12.661 7.268a.5.5 0 0 0-.402.49v5.901c-.514-.098-1.026-.197-1.559-.283a47.06 47.06 0 0 0-1.112-.169zm15.732-10.582v19.374c0 2.803-4.714 5.581-12.063 7.145v-20.98a49.247 49.247 0 0 0 4.043-1.031l.153-.045a31.052 31.052 0 0 0 1.609-.554c.129-.048.254-.097.38-.146.441-.171.864-.347 1.266-.529.065-.029.135-.057.198-.087.449-.208.868-.424 1.264-.645.095-.053.184-.106.276-.16.329-.192.639-.387.928-.587.061-.042.127-.083.186-.126.327-.235.624-.476.895-.721.06-.055.114-.11.172-.165.219-.209.417-.422.594-.638.029-.035.071-.069.099-.105z"></path></svg>